<svg xmlns="http://www.w3.org/2000/svg" xmlns:xlink="http://www.w3.org/1999/xlink" version="1.1" id="Layer_1" x="0px" y="0px" width="100px" height="99.1150442478px" viewBox="0 0 113 112.75" enable-background="new 0 0 113 112.75" xml:space="preserve">
<path d="M17.583,7.75c-2.517,0-4.557,1.709-4.557,3.827v88.03c0,2.115,2.041,3.831,4.557,3.831c2.51,0,4.546-1.716,4.546-3.831  v-88.03C22.129,9.459,20.093,7.75,17.583,7.75z"/>
<path d="M98.202,37.629v1.453v21.17c-4.587,4.163-15.346,12.028-29.09,10.139c-5.102-0.697-11.091-4.562-16.382-6.913  c-7.701-3.407-16.677-2.515-27.299,2.803V40.505v-3.424v7.412v-1.454V21.874c4.579-4.158,15.338-12.045,29.089-10.141  c5.105,0.707,11.092,4.564,16.38,6.916c7.706,3.401,16.677,2.505,27.302-2.8v25.768v3.426"/>
</svg>